<?xml version="1.0" encoding="utf-8"?>
<!-- Generator: Adobe Illustrator 19.2.1, SVG Export Plug-In . SVG Version: 6.00 Build 0)  -->
<svg version="1.1" id="Layer_2" xmlns="http://www.w3.org/2000/svg" xmlns:xlink="http://www.w3.org/1999/xlink" x="0px" y="0px"
	 viewBox="0 0 1700.8 1700.8" style="enable-background:new 0 0 1700.8 1700.8;" xml:space="preserve">
<style type="text/css">
	.st0{fill:#ED1C24;}
</style>
<path d="M462.6,558.3v294.4c0,38.7,6.1,65.8,18.3,81.1c12.2,15.3,33.3,23,63.2,23c29.9,0,50.9-7.6,63.1-22.8
	c12.1-15.2,18.2-42.3,18.2-81.2V558.3h76.3V855c0,29.3-1.7,52.8-5.1,70.2c-3.4,17.5-8.8,31.3-16.1,41.5
	c-14.4,19.5-32.6,33.9-54.6,43.1c-21.9,9.2-49.1,13.8-81.6,13.8c-32.5,0-59.8-4.6-81.9-13.8c-22.1-9.2-40.4-23.6-54.8-43.1
	c-7.2-10-12.5-23.4-15.8-40.3c-3.3-16.9-4.9-40.7-4.9-71.4V558.3H462.6z"/>
<path d="M700.1,1067.8h76.4V856.1h89.6l79.7,163.3h85.7L941.2,846c23.6-5.8,41.7-18.8,54.3-38.9c12.6-20.1,18.9-46.1,18.9-77.8
	c0-42.9-10.2-74.4-30.5-94.5c-20.3-20.1-52.3-30.2-96-30.2H700.1V1067.8z M922.8,690.4c9.6,7.8,14.4,21.1,14.4,40
	c0,19.1-4.9,32.6-14.8,40.5c-9.8,7.9-27.4,11.8-52.6,11.8h-93.3V678.8h93.3C895.6,678.8,913.2,682.7,922.8,690.4"/>
<path d="M1172.8,677.1c-27.6,0-48.4,7.9-62.4,23.6c-14,15.7-21.8,39.8-23.2,72.1l210.6,0.3v72.3h-211.1c0.2,36.1,6.9,62,20.1,77.8
	c13.2,15.8,35.2,23.7,66.1,23.7h125v72.6h-128.7c-28.4,0-50.6-2.8-66.9-8.3c-16.2-5.6-31.5-14.9-45.7-28.1
	c-18.5-16.9-32.4-39-41.7-66.2c-9.3-27.2-13.9-59.7-13.9-97.5c0-73.4,13.8-127.5,41.5-162.4c27.7-34.9,70.6-52.4,128.8-52.4h126.4
	v72.6H1172.8z"/>
<path d="M1592.1,678.8h-188.3c-20.2,0-35.1,4.3-44.5,12.9c-9.5,8.6-14.2,22.3-14.2,41c0,15,4,26.2,12.1,33.8
	c8,7.5,20.1,11.2,36,11.2h101c41.6,0,71.2,9.1,88.9,27.1c17.6,18.1,26.4,48.2,26.4,90.4c0,42.7-10.2,74.1-30.5,94.2
	c-20.3,20.1-52.3,30.1-95.9,30.1h-202.8v-72.6H1471c21.7-1.7,37-5.3,45.9-12.5c8.9-7.3,13.4-19.3,13.4-36c0-17.3-4.1-29.6-12.3-37
	c-8.1-7.3-22.1-11-41.8-11H1386c-41.6,0-72.1-9.5-91.3-28.6c-19.3-19.1-28.9-49.2-28.9-90.4c0-44,10.1-76.1,30.4-96.4
	c20.2-20.3,52.4-30.4,96.5-30.4h199.4V678.8z"/>
<path d="M311.9,773l-134.1-0.2c1.5-32.3,9.2-56.4,23.2-72.1c14-15.7,34.8-23.6,62.4-23.6h48.5V773z M388.3,712.1v-35v-72.6H261.9
	c-58.2,0-101.1,17.5-128.8,52.4c-14.6,18.4-28.6,46.6-31.3,69.7c-2.1,23.8-1,174.5-1,174.5v113.7h57.9h18.5v-10.5V845.8h0.1
	c0-0.1,0-0.3,0-0.4h134.6v101.5v67.9h76.4v-67.9V845.4h0.1v-72.3h-0.1v-61H388.3z"/>
<path d="M1623.7,621h3.6c1.7,0,2.9-0.3,3.5-0.8c0.6-0.5,0.9-1.2,0.9-2.1c0-0.5-0.2-1-0.5-1.5c-0.3-0.4-0.7-0.8-1.3-1
	c-0.5-0.2-1.5-0.3-3-0.3h-3.4V621z M1620.7,631.5v-18.5h6.4c2.2,0,3.8,0.2,4.7,0.5c1,0.3,1.8,0.9,2.3,1.8c0.6,0.9,0.9,1.8,0.9,2.7
	c0,1.4-0.5,2.5-1.4,3.5c-1,1-2.2,1.6-3.8,1.7c0.7,0.3,1.2,0.6,1.6,1c0.7,0.7,1.7,2,2.7,3.7l2.3,3.6h-3.7l-1.6-2.9
	c-1.3-2.3-2.3-3.7-3.1-4.3c-0.5-0.4-1.3-0.6-2.4-0.6h-1.8v7.9H1620.7z M1628.2,607.6c-2.4,0-4.8,0.6-7.1,1.9c-2.3,1.2-4.1,3-5.4,5.3
	c-1.3,2.3-1.9,4.7-1.9,7.2c0,2.5,0.6,4.9,1.9,7.1c1.3,2.3,3,4,5.3,5.3c2.3,1.3,4.7,1.9,7.1,1.9c2.5,0,4.9-0.6,7.1-1.9
	c2.3-1.3,4.1-3,5.3-5.3c1.3-2.3,1.9-4.7,1.9-7.1c0-2.5-0.6-4.9-1.9-7.2c-1.3-2.3-3.1-4.1-5.4-5.3
	C1633,608.2,1630.6,607.6,1628.2,607.6 M1628.2,604.7c2.9,0,5.7,0.7,8.5,2.2c2.8,1.5,4.9,3.6,6.4,6.4c1.5,2.8,2.3,5.6,2.3,8.6
	c0,3-0.8,5.8-2.3,8.6c-1.5,2.7-3.6,4.9-6.4,6.4c-2.7,1.5-5.6,2.3-8.6,2.3c-3,0-5.8-0.8-8.6-2.3c-2.7-1.5-4.9-3.6-6.4-6.4
	c-1.5-2.7-2.3-5.6-2.3-8.6c0-3,0.8-5.9,2.3-8.6c1.5-2.8,3.7-4.9,6.4-6.4C1622.5,605.5,1625.3,604.7,1628.2,604.7"/>
<path class="st0" d="M568.9,881.6c-13.2,0-23.8-11-23.8-24.6c0-13.6,10.7-24.6,23.8-24.6c13.2,0,23.8,11,23.8,24.6
	C592.8,870.6,582.1,881.6,568.9,881.6 M543.6,804.6c-38.7,0-70.1,31.4-70.1,70.1c0,38.7,31.4,70.1,70.1,70.1
	c38.7,0,70.1-31.4,70.1-70.1C613.7,836,582.3,804.6,543.6,804.6"/>
<path d="M1562.7,1213.8v-52.9h46.5v-15.7h-63.7v154.9h63.7v-15.7h-46.5v-55.1h37.8v-15.5H1562.7z M1494.7,1143.6
	c-23.7,0-34.8,15.5-34.8,39v80.1c0,23.5,11.1,39,34.8,39c23.9,0,35-15.5,35-39v-19.3h-16.4v20.1c0,13.9-5.5,22.4-18.1,22.4
	c-12.4,0-18.2-8.4-18.2-22.4v-81.9c0-13.9,5.8-22.4,18.2-22.4c12.6,0,18.1,8.4,18.1,22.4v14.8h16.4v-13.9
	C1529.7,1159.1,1518.6,1143.6,1494.7,1143.6 M1386,1174.8l39.6,125.3h17.9v-154.9h-15.3v112l-35.9-112h-21.9v154.9h15.5V1174.8z
	 M1308.3,1213.8v-52.9h46.5v-15.7h-63.7v154.9h63.7v-15.7h-46.5v-55.1h37.8v-15.5H1308.3z M1221.1,1218.2v-57.3h16.8
	c12.8,0,17.9,7.3,17.9,21.2v14.8c0,16.8-8.2,21.2-21.9,21.2H1221.1z M1203.9,1145.2v154.9h17.3v-66.2h12.2c14.4,0,22.6,5.5,22.6,23
	v24.3c0,10.4,0.9,14.4,2.9,18.8h17.5c-2.9-5.3-3.1-11.7-3.1-18.6v-24.1c0-16.6-5.3-28.1-19.5-32.3c13.3-4.2,19.3-14.8,19.3-31.9
	v-12.6c0-23-10.2-35.4-34.5-35.4H1203.9z M1141.5,1213.8v-52.9h46.5v-15.7h-63.7v154.9h63.7v-15.7h-46.5v-55.1h37.8v-15.5H1141.5z
	 M1066.2,1217.3v-56.4h44.3v-15.7h-61.5v154.9h17.3V1233h35.6v-15.7H1066.2z M990.9,1217.3v-56.4h44.3v-15.7h-61.5v154.9h17.3V1233
	h35.6v-15.7H990.9z M938.7,1300.1H956v-154.9h-17.3V1300.1z M868.3,1284.4v-123.5h18.6c12.6,0,18.6,7.7,18.6,21.9v79.7
	c0,14.2-6,21.9-18.4,21.9H868.3z M851.1,1145.2v154.9h36.3c24.1,0,35.2-14.6,35.2-38.3v-78.1c0-23.9-11.1-38.5-35.2-38.5H851.1z
	 M754.3,1213.8v-52.9h46.5v-15.7h-63.7v154.9h63.7v-15.7h-46.5v-55.1h37.8v-15.5H754.3z M702.1,1230.4v69.7h17.3v-154.9h-17.3v69.7
	H664v-69.7h-17.3v154.9H664v-69.7H702.1z M606.5,1300.1v-139.2H635v-15.7h-74.2v15.7h28.6v139.2H606.5z M497.8,1230.4v69.7h17.3
	v-154.9h-17.3v69.7h-38.1v-69.7h-17.3v154.9h17.3v-69.7H497.8z M391.8,1143.6c-23.7,0-34.8,15.5-34.8,39v80.1
	c0,23.5,11.1,39,34.8,39c23.9,0,35-15.5,35-39v-19.3h-16.4v20.1c0,13.9-5.5,22.4-18.2,22.4c-12.4,0-18.1-8.4-18.1-22.4v-81.9
	c0-13.9,5.8-22.4,18.1-22.4c12.6,0,18.2,8.4,18.2,22.4v14.8h16.4v-13.9C426.7,1159.1,415.7,1143.6,391.8,1143.6 M289.1,1145.2h-17
	v117.5c0,23.5,10.8,39.2,34.5,39.2c23.9,0,34.8-15.7,34.8-39.2v-117.5h-16.2v118.4c0,13.9-5.5,22.4-17.9,22.4
	c-12.6,0-18.2-8.4-18.2-22.4V1145.2z M202.3,1181.7c0-13.9,6-22.4,18.4-22.4c12.6,0,18.4,8.4,18.4,22.4v81.9
	c0,14.2-5.8,22.4-18.4,22.4c-12.4,0-18.4-8.2-18.4-22.4V1181.7z M185.3,1262.7c0,23.5,11.7,39,35.4,39c23.9,0,35.6-15.5,35.6-39
	v-80.1c0-23.7-11.7-39-35.6-39c-23.7,0-35.4,15.3-35.4,39V1262.7z M146.3,1300.1v-139.2h28.6v-15.7h-74.2v15.7h28.6v139.2H146.3z"/>
</svg>
